<svg width="843" height="692" xmlns="http://www.w3.org/2000/svg" xmlns:xlink="http://www.w3.org/1999/xlink" xml:space="preserve" overflow="hidden"><g transform="translate(-1448 -3428)"><g><path d="M2257.26 3510.15C2268.65 3503.07 2278.93 3494.49 2288.95 3481.79 2289.08 3481.59 2288.95 3481.33 2288.69 3481.33 2258.31 3488.21 2233.56 3503.4 2206.46 3512.5 2206.2 3512.57 2206 3512.24 2206.2 3512.05 2218.97 3501.76 2232.71 3492.92 2245.48 3482.84 2258.77 3472.42 2273.04 3462.34 2279.65 3442.3 2279.72 3442.1 2279.46 3441.91 2279.26 3441.97 2236.25 3462.47 2203.65 3494.62 2162.86 3513.03 2162.6 3513.16 2162.34 3512.83 2162.53 3512.64 2188.33 3485.52 2228.2 3472.03 2238.08 3430.31 2238.15 3430.05 2237.89 3429.92 2237.69 3430.05 2201.49 3459.59 2165.28 3489.06 2129.08 3518.59 2128.88 3518.79 2128.56 3518.53 2128.69 3518.27 2136.41 3503.79 2162.86 3469.02 2162.27 3450.48 2162.01 3450.42 2162.01 3450.42 2161.81 3450.35 2152.65 3466.73 2142.31 3480.87 2136.81 3487.29 2120.96 3505.82 2104.86 3523.9 2085.81 3538.9 2056.94 3561.62 2031.28 3587.56 1995.92 3603.27 1967.12 3616.04 1942.05 3640.15 1923.52 3667.98 1919 3674.79 1914.68 3682.39 1912.72 3690.18 1906.89 3713.17 1901.72 3736.42 1897.27 3759.73 1892.95 3782.46 1897.07 3790.18 1917.23 3802.5 1921.29 3804.99 1924.11 3808.33 1922.86 3813.3 1920.97 3821.1 1917.3 3827.97 1910.16 3832.29 1904.4 3835.77 1902.77 3829.94 1899.89 3827.12 1892.49 3819.98 1881.23 3816.25 1869.9 3815.92 1858.58 3816.25 1847.25 3819.98 1839.92 3827.12 1837.04 3829.94 1835.4 3835.77 1829.64 3832.29 1822.5 3828.04 1818.9 3821.1 1816.94 3813.3 1815.7 3808.33 1818.51 3804.99 1822.64 3802.5 1842.8 3790.25 1846.92 3782.46 1842.6 3759.73 1838.15 3736.42 1832.98 3713.23 1827.15 3690.18 1825.19 3682.32 1820.87 3674.79 1816.35 3667.98 1797.82 3640.15 1772.75 3616.04 1743.95 3603.27 1708.53 3587.56 1682.87 3561.62 1654.06 3538.9 1635.01 3523.9 1618.91 3505.82 1603.06 3487.29 1597.56 3480.87 1587.22 3466.79 1578.12 3450.35 1577.86 3450.42 1577.86 3450.42 1577.66 3450.48 1577.07 3469.02 1603.52 3503.73 1611.25 3518.27 1611.38 3518.53 1611.05 3518.73 1610.85 3518.59 1574.65 3489.06 1538.45 3459.59 1502.25 3430.05 1502.05 3429.92 1501.79 3430.05 1501.85 3430.31 1511.74 3472.1 1551.61 3485.52 1577.4 3512.64 1577.6 3512.83 1577.33 3513.16 1577.07 3513.03 1536.29 3494.69 1503.69 3462.47 1460.67 3441.97 1460.54 3442.04 1460.28 3442.23 1460.35 3442.43 1466.96 3462.47 1481.23 3472.55 1494.52 3482.97 1507.29 3492.99 1521.03 3501.83 1533.8 3512.18 1534 3512.37 1533.8 3512.7 1533.54 3512.64 1506.44 3503.53 1481.75 3488.34 1451.31 3481.46 1451.05 3481.4 1450.92 3481.72 1451.05 3481.92 1461.07 3494.56 1471.35 3503.14 1482.74 3510.28 1493.6 3517.02 1505.13 3522.72 1516.12 3529.47 1516.39 3529.6 1516.19 3529.99 1515.93 3529.99 1495.83 3526.13 1478.02 3513.81 1454.19 3513.55 1454 3513.55 1453.87 3513.81 1454 3514.01 1475.08 3537.46 1501.79 3547.21 1527.12 3559.59 1527.38 3559.72 1527.25 3560.12 1526.93 3560.05 1511.67 3556.25 1496.29 3552.45 1477.7 3547.8 1477.43 3547.74 1477.3 3548 1477.43 3548.2 1495.57 3573.02 1519.46 3581.66 1547.42 3590.77 1547.42 3591.03 1547.42 3590.96 1547.35 3591.22 1540.35 3592.6 1536.61 3594.43 1536.16 3596.92 1535.76 3599.02 1537.6 3601.11 1541.33 3604.26 1555.93 3616.57 1566.99 3616.9 1568.96 3624.69 1569.94 3628.62 1570.2 3629.54 1568.82 3633.79 1566.99 3639.43 1577.4 3641.72 1582.51 3645.12 1589.38 3649.71 1599.2 3651.15 1596.45 3663.85 1595.21 3669.81 1602.74 3671.84 1607.12 3674.46 1624.08 3684.55 1641.82 3694.76 1646.07 3715.66 1650.13 3735.63 1667.02 3748.07 1672.78 3766.8 1673.9 3770.41 1676.19 3773.35 1675.4 3777.68 1674.81 3780.82 1674.88 3785.47 1676.78 3787.37 1685.35 3795.95 1695.37 3802.5 1695.63 3817.36 1695.76 3823.19 1706.43 3821.62 1712.59 3822.21 1718.22 3822.8 1725.09 3823.52 1722.15 3831.05 1714.68 3850.11 1726.6 3849.52 1738.9 3848.47 1739.04 3848.47 1739.17 3848.6 1739.17 3848.73 1738.45 3866.48 1741.65 3869.43 1758.54 3865.04 1764.89 3863.4 1764.7 3867.4 1765.68 3870.08 1768.56 3878.14 1770.07 3886.46 1772.95 3894.51 1774.58 3899.03 1780.41 3900.21 1783.62 3896.67 1786.3 3893.66 1791.21 3894.58 1792.72 3898.31 1793.77 3900.99 1794.16 3903.88 1794.88 3906.56 1798.02 3919.14 1800.12 3932.36 1818.84 3917.43 1819.03 3917.3 1819.3 3917.43 1819.23 3917.63 1817.86 3931.84 1820.48 3941.86 1827.35 3951.16 1829.64 3954.17 1829.05 3955.48 1829.12 3956.07 1829.44 3962.23 1822.05 3969.17 1816.68 3968.25 1814.12 3967.8 1813.86 3965.83 1810.07 3962.23 1798.28 3951.03 1785.91 3945.33 1778.58 3962.29 1778.45 3962.56 1778.58 3962.75 1778.9 3962.62 1783.81 3960.92 1788.92 3960.13 1791.93 3961.31 1793.37 3961.84 1794.03 3963.01 1794.35 3964 1795.14 3966.29 1794.42 3968.78 1791.02 3970.09 1783.36 3973.03 1775.7 3974.21 1774.06 3985.35 1773.99 3985.67 1774.19 3985.67 1774.26 3985.67 1776.09 3984.76 1795.99 3975.2 1804.96 3982.99 1807.25 3984.95 1808.5 3987.31 1808.76 3987.84 1812.95 3996.81 1807.19 4008.46 1806.47 4008.27 1805.75 4008.14 1808.95 3996.55 1800.7 3991.31 1788.14 3983.32 1773.14 4006.96 1749.71 4037.28 1746.24 4041.8 1741.59 4048.55 1749.05 4055.36 1759.33 4064.79 1798.67 4023.33 1799.4 4022.81 1798.74 4023.86 1778.84 4051.49 1774.32 4056.93 1774.32 4056.93 1774.32 4056.93 1774.32 4056.93 1771.24 4061.71 1766.53 4068.65 1772.49 4074.28 1772.49 4074.28 1774.32 4076.44 1777.27 4076.9 1787.15 4078.41 1793.9 4068.78 1808.23 4053.46 1808.43 4053.26 1808.76 4053.46 1808.63 4053.72 1805.22 4060.33 1801.62 4066.82 1798.61 4073.56 1794.88 4082.01 1795.6 4089.74 1806.47 4091.11 1823.49 4093.28 1837.89 4101.99 1852.03 4109.98 1858.51 4113.64 1864.21 4115.67 1869.84 4116 1875.47 4115.67 1881.16 4113.58 1887.64 4109.98 1901.78 4101.99 1916.19 4093.28 1933.21 4091.11 1944.07 4089.74 1944.79 4082.01 1941.06 4073.56 1938.12 4066.75 1934.52 4060.27 1931.11 4053.72 1930.98 4053.46 1931.31 4053.19 1931.5 4053.46 1945.91 4068.72 1952.65 4078.34 1962.47 4076.9 1965.48 4076.44 1967.25 4074.28 1967.25 4074.28 1973.21 4068.58 1968.49 4061.71 1965.42 4056.93 1965.42 4056.93 1965.42 4056.93 1965.42 4056.93 1960.9 4051.49 1940.93 4023.86 1940.34 4022.81 1941 4023.27 1980.41 4064.79 1990.69 4055.36 1998.15 4048.55 1993.5 4041.73 1990.03 4037.28 1966.6 4006.96 1951.6 3983.32 1939.03 3991.31 1930.85 3996.48 1933.99 4008.07 1933.27 4008.27 1932.55 4008.46 1926.79 3996.81 1930.98 3987.84 1931.24 3987.31 1932.49 3984.95 1934.78 3982.99 1943.75 3975.2 1963.65 3984.76 1965.48 3985.67 1965.55 3985.67 1965.74 3985.67 1965.68 3985.35 1964.04 3974.28 1956.38 3973.03 1948.72 3970.09 1945.32 3968.78 1944.6 3966.29 1945.38 3964 1945.71 3963.01 1946.37 3961.84 1947.81 3961.31 1950.88 3960.13 1955.99 3960.92 1960.9 3962.62 1961.16 3962.75 1961.29 3962.56 1961.23 3962.29 1953.89 3945.33 1941.52 3951.03 1929.74 3962.23 1925.88 3965.83 1925.68 3967.86 1923.13 3968.25 1917.82 3969.17 1910.43 3962.23 1910.69 3956.07 1910.69 3955.48 1910.16 3954.17 1912.39 3951.16 1919.33 3941.79 1921.95 3931.84 1920.51 3917.63 1920.51 3917.43 1920.77 3917.24 1920.9 3917.43 1939.62 3932.3 1941.72 3919.07 1944.86 3906.56 1945.52 3903.88 1945.97 3900.99 1947.02 3898.31 1948.46 3894.58 1953.37 3893.66 1956.12 3896.67 1959.33 3900.27 1965.15 3899.03 1966.73 3894.51 1969.61 3886.46 1971.11 3878.14 1973.99 3870.08 1974.97 3867.4 1974.78 3863.4 1981.13 3865.04 1998.02 3869.43 2001.23 3866.55 2000.51 3848.73 2000.51 3848.6 2000.64 3848.47 2000.77 3848.47 2013.08 3849.45 2024.99 3850.11 2017.53 3831.05 2014.58 3823.52 2021.46 3822.8 2027.09 3822.21 2033.24 3821.62 2043.91 3823.19 2044.04 3817.36 2044.37 3802.5 2054.32 3795.95 2062.9 3787.37 2064.79 3785.47 2064.79 3780.82 2064.27 3777.68 2063.48 3773.35 2065.78 3770.47 2066.89 3766.8 2072.65 3748.07 2089.54 3735.63 2093.6 3715.66 2097.85 3694.76 2115.6 3684.48 2132.55 3674.46 2137 3671.84 2144.53 3669.81 2143.22 3663.85 2140.47 3651.15 2150.36 3649.71 2157.17 3645.12 2162.27 3641.72 2172.68 3639.43 2170.85 3633.79 2169.47 3629.54 2169.74 3628.62 2170.72 3624.69 2172.68 3616.9 2183.75 3616.57 2198.34 3604.26 2202.08 3601.11 2203.91 3599.02 2203.52 3596.92 2203.06 3594.43 2199.26 3592.6 2192.32 3591.22 2192.32 3590.96 2192.32 3591.03 2192.26 3590.77 2220.21 3581.66 2244.1 3573.02 2262.24 3548.2 2262.37 3548 2262.17 3547.74 2261.98 3547.8 2243.45 3552.39 2228 3556.25 2212.75 3560.05 2212.49 3560.12 2212.29 3559.72 2212.55 3559.59 2237.95 3547.15 2264.6 3537.39 2285.68 3514.01 2285.81 3513.88 2285.68 3513.55 2285.48 3513.55 2261.65 3513.81 2243.84 3526.13 2223.75 3529.99 2223.48 3530.06 2223.29 3529.66 2223.55 3529.47 2234.87 3522.59 2246.4 3516.89 2257.26 3510.15ZM1879.53 3895.17C1876.38 3905.84 1873.44 3916.65 1869.97 3929.29 1866.5 3916.65 1863.55 3905.91 1860.41 3895.17 1858.71 3889.27 1860.08 3884.56 1864.99 3881.15 1866.63 3880.04 1868.27 3879.25 1869.9 3878.79 1871.6 3879.25 1873.24 3880.04 1874.81 3881.15 1879.92 3884.62 1881.29 3889.27 1879.53 3895.17Z" fill="#211D55" fill-rule="evenodd" fill-opacity="1"/></g></g></svg>