<svg width="806" height="110" xmlns="http://www.w3.org/2000/svg" xmlns:xlink="http://www.w3.org/1999/xlink" xml:space="preserve" overflow="hidden"><g transform="translate(-1815 -1448)"><g><path d="M1852.25 1513.4 1903 1513.4 1903 1528 1852.25 1528C1842.2 1528 1833.65 1524.43 1826.6 1517.33 1819.55 1510.23 1816 1501.62 1816 1491.5 1816 1481.38 1819.55 1472.77 1826.6 1465.67 1833.65 1458.57 1842.2 1455 1852.25 1455L1886.7 1455 1886.7 1469.6 1852.25 1469.6C1846.2 1469.6 1841.05 1471.71 1836.85 1475.99 1832.6 1480.27 1830.5 1485.41 1830.5 1491.5 1830.5 1497.59 1832.6 1502.78 1836.85 1507.01 1841.1 1511.29 1846.2 1513.4 1852.25 1513.4Z" fill="#3D3B98" fill-rule="evenodd" fill-opacity="1"/><path d="M1913.55 1527.86 1899 1527.86 1899 1455 1949.91 1455C1955.98 1455 1961.14 1457.11 1965.36 1461.38 1969.62 1465.65 1971.73 1470.78 1971.73 1476.86 1971.73 1482.94 1969.62 1488.11 1965.36 1492.33 1961.09 1496.6 1955.98 1498.71 1949.91 1498.71L1946.75 1498.71 1979 1557 1962.65 1557 1922.62 1484.14 1949.91 1484.14C1951.97 1484.14 1953.67 1483.44 1955.08 1482.03 1956.48 1480.63 1957.18 1478.92 1957.18 1476.86 1957.18 1474.8 1956.48 1473.09 1955.08 1471.68 1953.67 1470.28 1951.97 1469.57 1949.91 1469.57L1913.55 1469.57 1913.55 1527.86Z" fill="#3D3B98" fill-rule="evenodd" fill-opacity="1"/><path d="M2013 1528C2003.02 1528 1994.53 1524.43 1987.53 1517.33 1980.53 1510.23 1977 1501.62 1977 1491.5 1977 1481.38 1980.53 1472.77 1987.53 1465.67 1994.53 1458.57 2003.02 1455 2013 1455 2022.98 1455 2031.47 1458.57 2038.47 1465.67 2045.47 1472.77 2049 1481.38 2049 1491.5 2049 1501.62 2045.47 1510.23 2038.47 1517.33 2031.47 1524.48 2022.98 1528 2013 1528ZM2013 1513.4C2019.01 1513.4 2024.07 1511.29 2028.29 1507.01 2032.52 1502.78 2034.6 1497.59 2034.6 1491.5 2034.6 1485.41 2032.52 1480.27 2028.29 1475.99 2024.07 1471.76 2019.01 1469.6 2013 1469.6 2006.99 1469.6 2001.88 1471.71 1997.71 1475.99 1993.49 1480.27 1991.4 1485.41 1991.4 1491.5 1991.4 1497.59 1993.49 1502.78 1997.71 1507.01 2001.88 1511.29 2006.99 1513.4 2013 1513.4Z" fill="#3D3B98" fill-rule="evenodd" fill-opacity="1"/><path d="M2102.5 1486.24 2080.56 1532 2044 1455.66 2060.44 1455.66 2080.56 1497.46 2094.28 1468.94 2102.5 1452 2110.72 1468.94 2124.44 1497.46 2144.56 1455.66 2161 1455.66 2124.44 1532 2102.5 1486.24Z" fill="#3D3B98" fill-rule="evenodd" fill-opacity="1"/><path d="M2229.13 1528 2138 1528 2145.29 1513.4 2229.13 1513.4C2231.2 1513.4 2232.9 1512.7 2234.31 1511.29 2235.72 1509.88 2236.42 1508.16 2236.42 1506.1 2236.42 1504.04 2235.72 1502.32 2234.31 1500.91 2232.9 1499.51 2231.2 1498.8 2229.13 1498.8L2199.98 1498.8C2193.9 1498.8 2188.72 1496.69 2184.5 1492.41 2180.22 1488.18 2178.11 1482.99 2178.11 1476.9 2178.11 1470.81 2180.22 1465.67 2184.5 1461.39 2188.77 1457.17 2193.9 1455 2199.98 1455L2247.38 1455 2247.38 1469.6 2199.98 1469.6C2197.92 1469.6 2196.21 1470.3 2194.8 1471.71 2193.39 1473.12 2192.69 1474.84 2192.69 1476.9 2192.69 1478.96 2193.39 1480.68 2194.8 1482.09 2196.21 1483.5 2197.92 1484.2 2199.98 1484.2L2229.13 1484.2C2235.22 1484.2 2240.34 1486.31 2244.62 1490.59 2248.89 1494.87 2251 1500.01 2251 1506.1 2251 1512.19 2248.89 1517.38 2244.62 1521.61 2240.34 1525.89 2235.22 1528 2229.13 1528Z" fill="#3D3B98" fill-rule="evenodd" fill-opacity="1"/><path d="M2273.4 1476.9 2273.4 1528 2259 1528 2259 1455 2273.4 1455 2316.6 1506.1 2316.6 1455 2331 1455 2331 1528 2316.6 1528 2273.4 1476.9Z" fill="#3D3B98" fill-rule="evenodd" fill-opacity="1"/><path d="M2418.67 1455 2411.4 1469.6 2360.53 1469.6 2360.53 1513.4 2440.47 1513.4 2433.2 1528 2346 1528 2346 1455 2418.67 1455ZM2447.73 1498.8 2375.07 1498.8 2375.07 1484.2 2455 1484.2 2447.73 1498.8Z" fill="#3D3B98" fill-rule="evenodd" fill-opacity="1"/><path d="M2521.33 1528 2431 1528 2438.22 1513.4 2521.33 1513.4C2523.37 1513.4 2525.06 1512.7 2526.46 1511.29 2527.85 1509.88 2528.55 1508.16 2528.55 1506.1 2528.55 1504.04 2527.85 1502.32 2526.46 1500.91 2525.06 1499.51 2523.37 1498.8 2521.33 1498.8L2492.43 1498.8C2486.4 1498.8 2481.32 1496.69 2477.09 1492.41 2472.85 1488.18 2470.76 1482.99 2470.76 1476.9 2470.76 1470.81 2472.85 1465.67 2477.09 1461.39 2481.32 1457.17 2486.4 1455 2492.43 1455L2539.41 1455 2539.41 1469.6 2492.43 1469.6C2490.39 1469.6 2488.69 1470.3 2487.3 1471.71 2485.9 1473.12 2485.21 1474.84 2485.21 1476.9 2485.21 1478.96 2485.9 1480.68 2487.3 1482.09 2488.69 1483.5 2490.39 1484.2 2492.43 1484.2L2521.33 1484.2C2527.36 1484.2 2532.44 1486.31 2536.67 1490.59 2540.91 1494.87 2543 1500.01 2543 1506.1 2543 1512.19 2540.91 1517.38 2536.67 1521.61 2532.49 1525.89 2527.36 1528 2521.33 1528Z" fill="#3D3B98" fill-rule="evenodd" fill-opacity="1"/><path d="M2588.91 1469.57 2588.91 1557 2574.36 1557 2574.36 1469.57 2538 1469.57 2538 1455 2618 1455 2618 1469.57 2588.91 1469.57Z" fill="#3D3B98" fill-rule="evenodd" fill-opacity="1"/></g></g></svg>