<svg width="935" height="152" xmlns="http://www.w3.org/2000/svg" xmlns:xlink="http://www.w3.org/1999/xlink" xml:space="preserve" overflow="hidden"><g transform="translate(-4418 -5600)"><g><path d="M4697.83 5690.6 4741 5690.6 4741 5703 4697.83 5703C4689.29 5703 4682.01 5699.96 4676.02 5693.94 4670.02 5687.91 4667 5680.6 4667 5672 4667 5663.41 4670.02 5656.09 4676.02 5650.06 4682.01 5644.04 4689.29 5641 4697.83 5641L4727.14 5641 4727.14 5653.4 4697.83 5653.4C4692.69 5653.4 4688.31 5655.2 4684.73 5658.83 4681.12 5662.47 4679.33 5666.83 4679.33 5672 4679.33 5677.17 4681.12 5681.58 4684.73 5685.17 4688.35 5688.8 4692.69 5690.6 4697.83 5690.6Z" fill="#211D55" fill-rule="evenodd" fill-opacity="1"/><path d="M4749.55 5703.14 4737 5703.14 4737 5641 4780.91 5641C4786.14 5641 4790.6 5642.8 4794.23 5646.44 4797.91 5650.09 4799.73 5654.46 4799.73 5659.64 4799.73 5664.83 4797.91 5669.24 4794.23 5672.84 4790.56 5676.49 4786.14 5678.29 4780.91 5678.29L4778.18 5678.29 4806 5728 4791.9 5728 4757.38 5665.86 4780.91 5665.86C4782.68 5665.86 4784.15 5665.26 4785.36 5664.06 4786.58 5662.86 4787.18 5661.4 4787.18 5659.64 4787.18 5657.89 4786.58 5656.43 4785.36 5655.23 4784.15 5654.03 4782.68 5653.43 4780.91 5653.43L4749.55 5653.43 4749.55 5703.14Z" fill="#211D55" fill-rule="evenodd" fill-opacity="1"/><path d="M4834 5703C4825.41 5703 4818.09 5699.96 4812.06 5693.94 4806.04 5687.91 4803 5680.6 4803 5672 4803 5663.41 4806.04 5656.09 4812.06 5650.06 4818.09 5644.04 4825.41 5641 4834 5641 4842.6 5641 4849.91 5644.04 4855.94 5650.06 4861.96 5656.09 4865 5663.41 4865 5672 4865 5680.6 4861.96 5687.91 4855.94 5693.94 4849.91 5700.01 4842.6 5703 4834 5703ZM4834 5690.6C4839.17 5690.6 4843.54 5688.8 4847.17 5685.17 4850.8 5681.58 4852.6 5677.17 4852.6 5672 4852.6 5666.83 4850.8 5662.47 4847.17 5658.83 4843.54 5655.24 4839.17 5653.4 4834 5653.4 4828.83 5653.4 4824.42 5655.2 4820.83 5658.83 4817.2 5662.47 4815.4 5666.83 4815.4 5672 4815.4 5677.17 4817.2 5681.58 4820.83 5685.17 4824.42 5688.8 4828.83 5690.6 4834 5690.6Z" fill="#211D55" fill-rule="evenodd" fill-opacity="1"/><path d="M4910.5 5667.53 4891.94 5707 4861 5641.16 4874.91 5641.16 4891.94 5677.21 4903.54 5652.61 4910.5 5638 4917.46 5652.61 4929.06 5677.21 4946.09 5641.16 4960 5641.16 4929.06 5707 4910.5 5667.53Z" fill="#211D55" fill-rule="evenodd" fill-opacity="1"/><path d="M5018.42 5703 4941 5703 4947.19 5690.6 5018.42 5690.6C5020.17 5690.6 5021.63 5690 5022.82 5688.8 5024.02 5687.61 5024.62 5686.15 5024.62 5684.4 5024.62 5682.65 5024.02 5681.19 5022.82 5680 5021.63 5678.8 5020.17 5678.2 5018.42 5678.2L4993.65 5678.2C4988.49 5678.2 4984.09 5676.4 4980.5 5672.77 4976.87 5669.18 4975.08 5664.77 4975.08 5659.6 4975.08 5654.43 4976.87 5650.06 4980.5 5646.43 4984.13 5642.84 4988.49 5641 4993.65 5641L5033.93 5641 5033.93 5653.4 4993.65 5653.4C4991.9 5653.4 4990.45 5654 4989.26 5655.2 4988.06 5656.39 4987.46 5657.85 4987.46 5659.6 4987.46 5661.35 4988.06 5662.81 4989.26 5664 4990.45 5665.2 4991.9 5665.8 4993.65 5665.8L5018.42 5665.8C5023.59 5665.8 5027.95 5667.6 5031.58 5671.23 5035.21 5674.87 5037 5679.23 5037 5684.4 5037 5689.57 5035.21 5693.98 5031.58 5697.57 5027.95 5701.2 5023.59 5703 5018.42 5703Z" fill="#211D55" fill-rule="evenodd" fill-opacity="1"/><path d="M5055.4 5659.6 5055.4 5703 5043 5703 5043 5641 5055.4 5641 5092.6 5684.4 5092.6 5641 5105 5641 5105 5703 5092.6 5703 5055.4 5659.6Z" fill="#211D55" fill-rule="evenodd" fill-opacity="1"/><path d="M5179 5641 5172.8 5653.4 5129.4 5653.4 5129.4 5690.6 5197.6 5690.6 5191.4 5703 5117 5703 5117 5641 5179 5641ZM5203.8 5678.2 5141.8 5678.2 5141.8 5665.8 5210 5665.8 5203.8 5678.2Z" fill="#211D55" fill-rule="evenodd" fill-opacity="1"/><path d="M5267.42 5703 5190 5703 5196.19 5690.6 5267.42 5690.6C5269.17 5690.6 5270.63 5690 5271.82 5688.8 5273.02 5687.61 5273.62 5686.15 5273.62 5684.4 5273.62 5682.65 5273.02 5681.19 5271.82 5680 5270.63 5678.8 5269.17 5678.2 5267.42 5678.2L5242.65 5678.2C5237.49 5678.2 5233.13 5676.4 5229.5 5672.77 5225.87 5669.18 5224.08 5664.77 5224.08 5659.6 5224.08 5654.43 5225.87 5650.06 5229.5 5646.43 5233.13 5642.84 5237.49 5641 5242.65 5641L5282.93 5641 5282.93 5653.4 5242.65 5653.4C5240.9 5653.4 5239.45 5654 5238.26 5655.2 5237.06 5656.39 5236.46 5657.85 5236.46 5659.6 5236.46 5661.35 5237.06 5662.81 5238.26 5664 5239.45 5665.2 5240.9 5665.8 5242.65 5665.8L5267.42 5665.8C5272.59 5665.8 5276.95 5667.6 5280.58 5671.23 5284.21 5674.87 5286 5679.23 5286 5684.4 5286 5689.57 5284.21 5693.98 5280.58 5697.57 5276.99 5701.2 5272.59 5703 5267.42 5703Z" fill="#211D55" fill-rule="evenodd" fill-opacity="1"/><path d="M5324.27 5653.43 5324.27 5728 5311.91 5728 5311.91 5653.43 5281 5653.43 5281 5641 5349 5641 5349 5653.43 5324.27 5653.43Z" fill="#211D55" fill-rule="evenodd" fill-opacity="1"/><path d="M4596.11 5619.29C4598.58 5617.77 4600.81 5615.91 4602.99 5613.17 4603.02 5613.13 4602.99 5613.07 4602.93 5613.07 4596.33 5614.56 4590.96 5617.84 4585.07 5619.8 4585.02 5619.81 4584.97 5619.74 4585.02 5619.7 4587.79 5617.48 4590.78 5615.58 4593.55 5613.4 4596.43 5611.15 4599.53 5608.98 4600.97 5604.65 4600.98 5604.61 4600.93 5604.57 4600.88 5604.58 4591.54 5609 4584.46 5615.94 4575.6 5619.91 4575.55 5619.94 4575.49 5619.87 4575.53 5619.83 4581.14 5613.98 4589.79 5611.07 4591.94 5602.07 4591.96 5602.01 4591.9 5601.98 4591.86 5602.01 4583.99 5608.38 4576.13 5614.74 4568.27 5621.11 4568.23 5621.16 4568.15 5621.1 4568.18 5621.04 4569.86 5617.92 4575.6 5610.42 4575.48 5606.42 4575.42 5606.41 4575.42 5606.41 4575.38 5606.39 4573.39 5609.92 4571.14 5612.98 4569.95 5614.36 4566.51 5618.36 4563.01 5622.26 4558.87 5625.49 4552.6 5630.4 4547.03 5635.99 4539.35 5639.38 4533.09 5642.14 4527.65 5647.34 4523.62 5653.34 4522.64 5654.81 4521.7 5656.45 4521.28 5658.13 4520.01 5663.09 4518.89 5668.11 4517.92 5673.14 4516.98 5678.04 4517.88 5679.71 4522.26 5682.36 4523.14 5682.9 4523.75 5683.62 4523.48 5684.69 4523.07 5686.38 4522.27 5687.86 4520.72 5688.79 4519.47 5689.54 4519.12 5688.28 4518.49 5687.68 4516.88 5686.14 4514.44 5685.33 4511.98 5685.26 4509.52 5685.33 4507.06 5686.14 4505.47 5687.68 4504.84 5688.28 4504.49 5689.54 4503.23 5688.79 4501.69 5687.87 4500.9 5686.38 4500.48 5684.69 4500.21 5683.62 4500.82 5682.9 4501.71 5682.36 4506.09 5679.72 4506.99 5678.04 4506.05 5673.14 4505.08 5668.11 4503.96 5663.11 4502.69 5658.13 4502.27 5656.44 4501.33 5654.81 4500.35 5653.34 4496.32 5647.34 4490.88 5642.14 4484.62 5639.38 4476.93 5635.99 4471.36 5630.4 4465.1 5625.49 4460.96 5622.26 4457.47 5618.36 4454.03 5614.36 4452.83 5612.98 4450.58 5609.94 4448.61 5606.39 4448.55 5606.41 4448.55 5606.41 4448.51 5606.42 4448.38 5610.42 4454.12 5617.91 4455.8 5621.04 4455.83 5621.1 4455.76 5621.14 4455.72 5621.11 4447.85 5614.74 4439.99 5608.38 4432.13 5602.01 4432.09 5601.98 4432.03 5602.01 4432.04 5602.07 4434.19 5611.08 4442.85 5613.98 4448.45 5619.83 4448.49 5619.87 4448.44 5619.94 4448.38 5619.91 4439.52 5615.96 4432.44 5609 4423.1 5604.58 4423.07 5604.6 4423.02 5604.64 4423.03 5604.68 4424.47 5609 4427.57 5611.18 4430.45 5613.43 4433.22 5615.59 4436.21 5617.5 4438.98 5619.73 4439.03 5619.77 4438.98 5619.84 4438.93 5619.83 4433.04 5617.86 4427.68 5614.59 4421.07 5613.1 4421.01 5613.09 4420.98 5613.16 4421.01 5613.2 4423.19 5615.93 4425.42 5617.78 4427.89 5619.32 4430.25 5620.77 4432.76 5622 4435.14 5623.46 4435.2 5623.49 4435.16 5623.57 4435.1 5623.57 4430.74 5622.74 4426.87 5620.08 4421.69 5620.03 4421.65 5620.03 4421.62 5620.08 4421.65 5620.12 4426.23 5625.18 4432.03 5627.29 4437.53 5629.96 4437.59 5629.99 4437.56 5630.07 4437.49 5630.06 4434.18 5629.24 4430.84 5628.42 4426.8 5627.42 4426.74 5627.4 4426.71 5627.46 4426.74 5627.5 4430.68 5632.85 4435.87 5634.72 4441.94 5636.68 4441.94 5636.74 4441.94 5636.73 4441.93 5636.78 4440.4 5637.08 4439.59 5637.48 4439.49 5638.01 4439.41 5638.46 4439.81 5638.92 4440.62 5639.59 4443.79 5642.25 4446.19 5642.32 4446.62 5644 4446.83 5644.85 4446.89 5645.05 4446.59 5645.97 4446.19 5647.18 4448.45 5647.68 4449.56 5648.41 4451.05 5649.4 4453.19 5649.71 4452.59 5652.45 4452.32 5653.74 4453.95 5654.18 4454.91 5654.74 4458.59 5656.92 4462.44 5659.12 4463.37 5663.63 4464.25 5667.94 4467.92 5670.62 4469.17 5674.66 4469.41 5675.44 4469.91 5676.08 4469.74 5677.01 4469.61 5677.69 4469.62 5678.69 4470.04 5679.1 4471.9 5680.95 4474.07 5682.36 4474.13 5685.57 4474.16 5686.83 4476.48 5686.49 4477.81 5686.62 4479.04 5686.74 4480.53 5686.9 4479.89 5688.52 4478.27 5692.64 4480.86 5692.51 4483.53 5692.28 4483.56 5692.28 4483.58 5692.31 4483.58 5692.34 4483.43 5696.17 4484.13 5696.8 4487.79 5695.86 4489.17 5695.5 4489.13 5696.37 4489.34 5696.94 4489.97 5698.68 4490.3 5700.48 4490.92 5702.21 4491.28 5703.19 4492.54 5703.44 4493.24 5702.68 4493.82 5702.03 4494.89 5702.23 4495.22 5703.03 4495.44 5703.61 4495.53 5704.24 4495.69 5704.81 4496.37 5707.53 4496.82 5710.38 4500.89 5707.16 4500.93 5707.13 4500.99 5707.16 4500.97 5707.2 4500.68 5710.27 4501.24 5712.43 4502.74 5714.44 4503.23 5715.09 4503.11 5715.37 4503.12 5715.5 4503.19 5716.82 4501.59 5718.32 4500.42 5718.12 4499.86 5718.03 4499.81 5717.6 4498.98 5716.82 4496.42 5714.41 4493.74 5713.18 4492.14 5716.84 4492.12 5716.9 4492.14 5716.94 4492.22 5716.91 4493.28 5716.54 4494.39 5716.37 4495.04 5716.63 4495.36 5716.74 4495.5 5716.99 4495.57 5717.21 4495.74 5717.7 4495.59 5718.24 4494.85 5718.52 4493.18 5719.16 4491.52 5719.41 4491.16 5721.81 4491.15 5721.88 4491.19 5721.88 4491.21 5721.88 4491.6 5721.69 4495.93 5719.62 4497.87 5721.3 4498.37 5721.73 4498.64 5722.24 4498.7 5722.35 4499.61 5724.28 4498.36 5726.8 4498.2 5726.76 4498.04 5726.73 4498.74 5724.23 4496.95 5723.1 4494.22 5721.37 4490.96 5726.47 4485.87 5733.02 4485.12 5733.99 4484.11 5735.45 4485.73 5736.92 4487.96 5738.95 4496.51 5730.01 4496.67 5729.89 4496.52 5730.12 4492.2 5736.08 4491.22 5737.26 4491.22 5737.26 4491.22 5737.26 4491.22 5737.26 4490.55 5738.29 4489.53 5739.78 4490.82 5741 4490.82 5741 4491.22 5741.47 4491.86 5741.56 4494.01 5741.89 4495.47 5739.81 4498.59 5736.51 4498.63 5736.46 4498.7 5736.51 4498.67 5736.56 4497.93 5737.99 4497.15 5739.39 4496.5 5740.84 4495.69 5742.67 4495.84 5744.33 4498.2 5744.63 4501.9 5745.1 4505.03 5746.98 4508.1 5748.7 4509.5 5749.49 4510.74 5749.93 4511.96 5750 4513.19 5749.93 4514.42 5749.48 4515.83 5748.7 4518.9 5746.98 4522.03 5745.1 4525.73 5744.63 4528.09 5744.33 4528.24 5742.67 4527.43 5740.84 4526.79 5739.37 4526.01 5737.98 4525.27 5736.56 4525.24 5736.51 4525.32 5736.45 4525.36 5736.51 4528.49 5739.8 4529.95 5741.88 4532.08 5741.56 4532.74 5741.47 4533.12 5741 4533.12 5741 4534.42 5739.77 4533.39 5738.29 4532.72 5737.26 4532.72 5737.26 4532.72 5737.26 4532.72 5737.26 4531.74 5736.08 4527.41 5730.12 4527.28 5729.89 4527.42 5729.99 4535.98 5738.95 4538.21 5736.92 4539.83 5735.45 4538.82 5733.98 4538.07 5733.02 4532.98 5726.47 4529.72 5721.37 4526.99 5723.1 4525.22 5724.21 4525.9 5726.71 4525.74 5726.76 4525.59 5726.8 4524.33 5724.28 4525.24 5722.35 4525.3 5722.24 4525.57 5721.73 4526.07 5721.3 4528.02 5719.62 4532.34 5721.69 4532.74 5721.88 4532.75 5721.88 4532.79 5721.88 4532.78 5721.81 4532.42 5719.42 4530.76 5719.16 4529.1 5718.52 4528.36 5718.24 4528.2 5717.7 4528.37 5717.21 4528.44 5716.99 4528.59 5716.74 4528.9 5716.63 4529.57 5716.37 4530.68 5716.54 4531.74 5716.91 4531.8 5716.94 4531.83 5716.9 4531.81 5716.84 4530.22 5713.18 4527.53 5714.41 4524.97 5716.82 4524.14 5717.6 4524.09 5718.04 4523.54 5718.12 4522.39 5718.32 4520.78 5716.82 4520.84 5715.5 4520.84 5715.37 4520.72 5715.09 4521.21 5714.44 4522.71 5712.42 4523.28 5710.27 4522.97 5707.2 4522.97 5707.16 4523.03 5707.12 4523.05 5707.16 4527.12 5710.37 4527.58 5707.51 4528.26 5704.81 4528.4 5704.24 4528.5 5703.61 4528.73 5703.03 4529.04 5702.23 4530.11 5702.03 4530.7 5702.68 4531.4 5703.46 4532.67 5703.19 4533.01 5702.21 4533.63 5700.48 4533.96 5698.68 4534.59 5696.94 4534.8 5696.37 4534.76 5695.5 4536.14 5695.86 4539.8 5696.8 4540.5 5696.18 4540.34 5692.34 4540.34 5692.31 4540.37 5692.28 4540.4 5692.28 4543.07 5692.49 4545.66 5692.64 4544.04 5688.52 4543.4 5686.9 4544.89 5686.74 4546.12 5686.62 4547.45 5686.49 4549.77 5686.83 4549.8 5685.57 4549.87 5682.36 4552.03 5680.95 4553.89 5679.1 4554.31 5678.69 4554.31 5677.69 4554.19 5677.01 4554.02 5676.08 4554.52 5675.45 4554.76 5674.66 4556.01 5670.62 4559.68 5667.94 4560.56 5663.63 4561.49 5659.12 4565.34 5656.9 4569.02 5654.74 4569.99 5654.18 4571.62 5653.74 4571.34 5652.45 4570.74 5649.71 4572.89 5649.4 4574.37 5648.41 4575.48 5647.68 4577.74 5647.18 4577.34 5645.97 4577.04 5645.05 4577.1 5644.85 4577.31 5644 4577.74 5642.32 4580.14 5642.25 4583.31 5639.59 4584.12 5638.92 4584.52 5638.46 4584.43 5638.01 4584.33 5637.48 4583.51 5637.08 4582 5636.78 4582 5636.73 4582 5636.74 4581.99 5636.68 4588.06 5634.72 4593.25 5632.85 4597.19 5627.5 4597.22 5627.46 4597.17 5627.4 4597.13 5627.42 4593.11 5628.4 4589.75 5629.24 4586.44 5630.06 4586.38 5630.07 4586.34 5629.99 4586.4 5629.96 4591.91 5627.27 4597.7 5625.17 4602.28 5620.12 4602.31 5620.1 4602.28 5620.03 4602.24 5620.03 4597.06 5620.08 4593.19 5622.74 4588.83 5623.57 4588.77 5623.59 4588.73 5623.5 4588.79 5623.46 4591.25 5621.98 4593.75 5620.75 4596.11 5619.29ZM4514.07 5702.36C4513.39 5704.66 4512.75 5706.99 4511.99 5709.72 4511.24 5706.99 4510.6 5704.67 4509.92 5702.36 4509.55 5701.08 4509.85 5700.07 4510.91 5699.33 4511.27 5699.09 4511.62 5698.92 4511.98 5698.82 4512.35 5698.92 4512.7 5699.09 4513.04 5699.33 4514.15 5700.08 4514.45 5701.08 4514.07 5702.36Z" fill="#211D55" fill-rule="evenodd" fill-opacity="1"/></g></g></svg>